<?xml version="1.0" encoding="UTF-8"?>
<svg width="500" height="500" version="1.1" viewBox="0 0 500 500" xmlns="http://www.w3.org/2000/svg">
 <circle cx="250" cy="250" r="250" fill="#F3BA2F"/>
 <path d="M250 145.23L304.77 200 327.39 177.39 250 100 172.61 177.39 195.23 200 250 145.23zM145.23 250L167.84 227.39 145.23 204.77 122.61 227.39 145.23 250zM250 354.77L195.23 300 172.61 322.61 250 400 327.39 322.61 304.77 300 250 354.77zM354.77 250L332.16 272.61 354.77 295.23 377.39 272.61 354.77 250zM250 297.39L297.39 250 250 202.61 202.61 250 250 297.39z" fill="#ffffff"/>
</svg>
