<?xml version="1.0" encoding="UTF-8"?>
<svg width="2500" height="2500" viewBox="0 0 2500 2500" xmlns="http://www.w3.org/2000/svg">
  <g fill="#F3BA2F">
    <path d="M764.48 1050.58L1250 565.05l485.61 485.61 282.53-282.53L1250 0 482.03 767.97l282.45 282.61zM0 1250l282.53-282.53L565.05 1250l-282.52 282.52zm764.48 199.42L1250 1934.95l485.61-485.61 282.61 282.53L1250 2500 482.03 1732.03l282.45-282.61zM1934.95 1250l282.53-282.53L2500 1250l-282.52 282.52z"/>
    <path d="M1536.52 1250L1250 963.39 1038.39 1175l-24.61 24.61-49.3 49.3-.91.91.91.99L1250 1536.52l286.52-286.52z"/>
  </g>
</svg>
