<?xml version="1.0" encoding="UTF-8"?>
<svg width="144" height="144" viewBox="0 0 144 144" version="1.1" xmlns="http://www.w3.org/2000/svg">
    <path fill="#F3BA2F" d="M72,0 L72,0 C111.764502,0 144,32.235498 144,72 L144,72 C144,111.764502 111.764502,144 72,144 L72,144 C32.235498,144 0,111.764502 0,72 L0,72 C0,32.235498 32.235498,0 72,0 Z"/>
    <path fill="#FFFFFF" d="M72.1,68.3 L84.3,56.1 L96.5,68.3 L103.4,61.4 L84.3,42.3 L65.2,61.4 L72.1,68.3 Z M52.2,72 L59.1,65.1 L66,72 L59.1,78.9 L52.2,72 Z M72.1,75.7 L84.3,87.9 L96.5,75.7 L103.4,82.6 L84.3,101.7 L65.2,82.6 L72.1,75.7 Z M102.6,72 L109.5,65.1 L116.4,72 L109.5,78.9 L102.6,72 Z M84.3,75.7 L72.1,63.5 L63.5,72.1 L72.1,80.7 L84.3,75.7 Z"/>
</svg>
