<?xml version="1.0" encoding="UTF-8"?>
<svg width="200" height="60" viewBox="0 0 200 60" version="1.1" xmlns="http://www.w3.org/2000/svg">
    <path fill="#FFFFFF" d="M37.5,10.5 C36.7,10.6 35.9,11.2 35.7,12 L34.5,16.5 L33.3,12 C33.1,11.2 32.3,10.6 31.5,10.5 L25.5,10.2 L29.4,24.5 C29.6,25.3 30.4,25.9 31.2,25.9 C32,25.9 32.8,25.3 33,24.5 L36.9,10.2 L31.5,10.5 Z M168,10.2 L164.1,24.5 C163.9,25.3 163.1,25.9 162.3,25.9 C161.5,25.9 160.7,25.3 160.5,24.5 L156.6,10.2 L162,10.5 C162.8,10.4 163.6,11 163.8,11.8 L165,16.3 L166.2,11.8 C166.4,11 167.2,10.4 168,10.4 L173.4,10.1 L169.5,24.4 C169.3,25.2 168.5,25.8 167.7,25.8 C166.9,25.8 166.1,25.2 165.9,24.4 L168,10.2 Z"/>
</svg>
