<?xml version="1.0" encoding="UTF-8"?>
<svg width="2500" height="625" viewBox="0 0 400 100" xmlns="http://www.w3.org/2000/svg">
  <path d="M68.2 19.5c-1.8.1-3.4 1.3-3.9 3l-2.5 8.5-2.5-8.5c-.5-1.7-2.1-2.9-3.9-3L43.7 19l7.8 26.4c.5 1.7 2.1 2.9 3.9 3 1.8-.1 3.4-1.3 3.9-3l7.8-26.4-11.7.5zm266.9-.5l-7.8 26.4c-.5 1.7-2.1 2.9-3.9 3-1.8-.1-3.4-1.3-3.9-3L311.7 19l11.7.5c1.8-.1 3.4 1.1 3.9 2.8l2.5 8.5 2.5-8.5c.5-1.7 2.1-2.9 3.9-3l11.7-.5-7.8 26.4c-.5 1.7-2.1 2.9-3.9 3-1.8-.1-3.4-1.3-3.9-3zm-163.4.5c-1.8.1-3.4 1.3-3.9 3l-2.5 8.5-2.5-8.5c-.5-1.7-2.1-2.9-3.9-3l-11.7-.5 7.8 26.4c.5 1.7 2.1 2.9 3.9 3 1.8-.1 3.4-1.3 3.9-3l7.8-26.4-11.7.5zm62.1-.5l-7.8 26.4c-.5 1.7-2.1 2.9-3.9 3-1.8-.1-3.4-1.3-3.9-3L210.4 19l11.7.5c1.8-.1 3.4 1.1 3.9 2.8l2.5 8.5 2.5-8.5c.5-1.7 2.1-2.9 3.9-3l11.7-.5-7.8 26.4c-.5 1.7-2.1 2.9-3.9 3-1.8-.1-3.4-1.3-3.9-3z" fill="#FFFFFF"/>
</svg>
