<?xml version="1.0" encoding="UTF-8"?>
<svg width="2500" height="2500" viewBox="0 0 2500 2500" xmlns="http://www.w3.org/2000/svg">
  <path d="M1250 0C559.644 0 0 559.644 0 1250s559.644 1250 1250 1250 1250-559.644 1250-1250S1940.356 0 1250 0zm-50 1000c138.071 0 250 111.929 250 250s-111.929 250-250 250-250-111.929-250-250 111.929-250 250-250zm-450-200c110.457 0 200 89.543 200 200s-89.543 200-200 200-200-89.543-200-200 89.543-200 200-200zm1000 0c110.457 0 200 89.543 200 200s-89.543 200-200 200-200-89.543-200-200 89.543-200 200-200z" fill="#FFFFFF"/>
</svg>
