<?xml version="1.0" encoding="UTF-8"?>
<svg width="200" height="60" viewBox="0 0 200 60" version="1.1" xmlns="http://www.w3.org/2000/svg">
    <path fill="#0AB27D" d="M30,0 C13.4314575,0 0,13.4314575 0,30 C0,46.5685425 13.4314575,60 30,60 C46.5685425,60 60,46.5685425 60,30 C60,13.4314575 46.5685425,0 30,0 Z M28.8,24 C32.1137085,24 34.8,26.6862915 34.8,30 C34.8,33.3137085 32.1137085,36 28.8,36 C25.4862915,36 22.8,33.3137085 22.8,30 C22.8,26.6862915 25.4862915,24 28.8,24 Z M18,19.2 C20.6509668,19.2 22.8,21.3490332 22.8,24 C22.8,26.6509668 20.6509668,28.8 18,28.8 C15.3490332,28.8 13.2,26.6509668 13.2,24 C13.2,21.3490332 15.3490332,19.2 18,19.2 Z M42,19.2 C44.6509668,19.2 46.8,21.3490332 46.8,24 C46.8,26.6509668 44.6509668,28.8 42,28.8 C39.3490332,28.8 37.2,26.6509668 37.2,24 C37.2,21.3490332 39.3490332,19.2 42,19.2 Z"/>
</svg>
